<?xml version="1.0" encoding="utf-8"?>
<!-- Generator: Adobe Illustrator 14.0.0, SVG Export Plug-In . SVG Version: 6.00 Build 43363)  -->
<!DOCTYPE svg PUBLIC "-//W3C//DTD SVG 1.1//EN" "http://www.w3.org/Graphics/SVG/1.1/DTD/svg11.dtd">
<svg version="1.1"
	 id="svg1307" xmlns:svg="http://www.w3.org/2000/svg" inkscape:version="0.47 r22583" xmlns:sodipodi="http://sodipodi.sourceforge.net/DTD/sodipodi-0.dtd" sodipodi:version="0.32" inkscape:export-xdpi="90" xmlns:rdf="http://www.w3.org/1999/02/22-rdf-syntax-ns#" xmlns:inkscape="http://www.inkscape.org/namespaces/inkscape" inkscape:export-ydpi="90" xmlns:dc="http://purl.org/dc/elements/1.1/" sodipodi:docname="face-monkey.svg" xmlns:cc="http://creativecommons.org/ns#" xmlns:ns1="http://sozi.baierouge.fr" inkscape:export-filename="/home/ulisse/Desktop/greasemonkey/greasemonkey.png" inkscape:output_extension="org.inkscape.output.svg.inkscape"
	 xmlns="http://www.w3.org/2000/svg" xmlns:xlink="http://www.w3.org/1999/xlink" x="0px" y="0px" width="2472px" height="1604px"
	 viewBox="-1199.5 -832.5 2472 1604" enable-background="new -1199.5 -832.5 2472 1604" xml:space="preserve">
<path id="path5040" sodipodi:cx="-9.25" sodipodi:cy="14.75" sodipodi:type="arc" sodipodi:ry="4.75" sodipodi:rx="4.75" inkscape:export-xdpi="1256.7957" inkscape:export-ydpi="1256.7957" inkscape:export-filename="/Users/mdespont/Desktop/recherche en cours/kong/path5090.png" fill="#6B350B" d="
	M222.71-132.524c0,57.239,27.927,103.648,62.328,103.648c34.421,0,62.327-46.409,62.327-103.648s-27.906-103.638-62.327-103.638
	C250.637-236.162,222.71-189.763,222.71-132.524z"/>
<radialGradient id="path5042_1_" cx="-327.8052" cy="-66.5474" r="112.9389" gradientTransform="matrix(-1.6896 0 0 -2.5474 -340.3301 -247.0378)" gradientUnits="userSpaceOnUse">
	<stop  offset="0" style="stop-color:#F6E1CF"/>
	<stop  offset="0.5" style="stop-color:#E19D56"/>
	<stop  offset="1" style="stop-color:#F4DCB7"/>
</radialGradient>
<path id="path5042" sodipodi:cx="-9.25" sodipodi:cy="14.75" sodipodi:type="arc" sodipodi:ry="4.75" sodipodi:rx="4.75" inkscape:export-xdpi="1256.7957" inkscape:export-ydpi="1256.7957" inkscape:export-filename="/Users/mdespont/Desktop/recherche en cours/kong/path5090.png" fill="url(#path5042_1_)" d="
	M227.965-131.458c0,39.811,21.389,72.081,47.806,72.081c26.396,0,47.806-32.271,47.806-72.081c0-39.801-21.41-72.071-47.806-72.071
	C249.354-203.529,227.965-171.259,227.965-131.458z"/>
<path id="path5046" sodipodi:cx="-9.25" sodipodi:cy="14.75" sodipodi:type="arc" sodipodi:ry="4.75" sodipodi:rx="4.75" inkscape:export-xdpi="1256.7957" inkscape:export-ydpi="1256.7957" inkscape:export-filename="/Users/mdespont/Desktop/recherche en cours/kong/path5090.png" fill="#6B350B" d="
	M-175.654-132.524c0,57.239-27.896,103.648-62.317,103.648c-34.412,0-62.317-46.409-62.317-103.648s27.906-103.638,62.317-103.638
	C-203.55-236.162-175.654-189.763-175.654-132.524z"/>
<radialGradient id="path5048_1_" cx="107.3936" cy="-66.5474" r="112.9389" gradientTransform="matrix(1.6896 0 0 -2.5474 -347.9092 -247.0378)" gradientUnits="userSpaceOnUse">
	<stop  offset="0" style="stop-color:#F6E1CF"/>
	<stop  offset="0.5" style="stop-color:#E19D56"/>
	<stop  offset="1" style="stop-color:#F4DCB7"/>
</radialGradient>
<path id="path5048" sodipodi:cx="-9.25" sodipodi:cy="14.75" sodipodi:type="arc" sodipodi:ry="4.75" sodipodi:rx="4.75" inkscape:export-xdpi="1256.7957" inkscape:export-ydpi="1256.7957" inkscape:export-filename="/Users/mdespont/Desktop/recherche en cours/kong/path5090.png" fill="url(#path5048_1_)" d="
	M-180.888-131.458c0,39.811-21.399,72.081-47.806,72.081c-26.406,0-47.806-32.271-47.806-72.081
	c0-39.801,21.399-72.071,47.806-72.071C-202.287-203.529-180.888-171.259-180.888-131.458z"/>
<path id="path5050" inkscape:export-xdpi="1256.7957" inkscape:export-ydpi="1256.7957" inkscape:export-filename="/Users/mdespont/Desktop/recherche en cours/kong/path5090.png" sodipodi:nodetypes="czczc" fill="#6B350B" d="
	M235.659-92.982c118.637,126.558,0,300.549-213.542,300.549c-213.544,0-332.19-173.991-213.544-300.549
	c-63.279-166.089,63.27-284.725,213.544-284.725C172.38-377.707,298.918-259.071,235.659-92.982z"/>
<radialGradient id="path5052_1_" cx="200.2129" cy="-203.4209" r="317.7218" gradientTransform="matrix(2.0789 0 0 -1.4649 -394.0801 -276.2766)" gradientUnits="userSpaceOnUse">
	<stop  offset="0" style="stop-color:#F6E1CF"/>
	<stop  offset="0.5" style="stop-color:#E19D56"/>
	<stop  offset="1" style="stop-color:#F4DCB7"/>
</radialGradient>
<path id="path5052" inkscape:export-xdpi="1256.7957" inkscape:export-ydpi="1256.7957" inkscape:export-filename="/Users/mdespont/Desktop/recherche en cours/kong/path5090.png" sodipodi:nodetypes="cscssscsscsc" fill="url(#path5052_1_)" d="
	M-75.327-298.541c-56.524,3.486-100.255,56.908-100.255,126.475c0,30.296,7.592,61.853,21.896,83.965
	c-33.429,27.927-53.535,50.475-53.505,103.307c0.042,88.703,86.965,160.732,229.328,160.691
	c142.363-0.021,229.286-71.988,229.327-160.691c0.041-52.832-20.065-75.38-53.494-103.307
	c14.294-22.112,21.886-53.669,21.886-83.965c0-71.812-46.916-126.475-105.996-126.475c-38.765,0-72.938,25.103-91.723,62.658
	c-18.783-37.555-52.966-62.658-91.743-62.658c-1.841,0-3.91-0.104-5.73,0H-75.327z"/>
<g id="g5056" transform="translate(114.32 -50.203)" inkscape:export-xdpi="1256.7957" inkscape:export-ydpi="1256.7957" inkscape:export-filename="/Users/mdespont/Desktop/recherche en cours/kong/path5090.png">
	<g id="g5058" transform="matrix(.41061 0 0 .41061 37.955 10.947)">
		
			<path id="path5060" sodipodi:cx="120" sodipodi:cy="592.36218" sodipodi:type="arc" sodipodi:ry="57.142857" sodipodi:rx="57.142857" fill="#FFFFFF" d="
			M30.979-258.379c0,88.717-71.89,160.635-160.608,160.635c-88.716,0-160.637-71.918-160.637-160.635
			c0-88.694,71.92-160.635,160.637-160.635C-40.911-419.015,30.979-347.073,30.979-258.379z"/>
		
			<path id="path5062" sodipodi:cx="120" sodipodi:cy="592.36218" sodipodi:type="arc" sodipodi:ry="57.142857" sodipodi:rx="57.142857" stroke="#000000" stroke-width="0.1" d="
			M-24.137-262.384c0,67.609-48.111,122.421-107.51,122.421c-59.344,0-107.457-54.812-107.457-122.421
			c0-67.634,48.113-122.448,107.457-122.448C-72.248-384.832-24.137-330.018-24.137-262.384z"/>
		
			<path id="path5064" sodipodi:cx="120" sodipodi:cy="592.36218" sodipodi:type="arc" sodipodi:ry="57.142857" sodipodi:rx="57.142857" fill="#FFFFFF" stroke="#000000" stroke-width="0.1" d="
			M-76.883-200.246c0,22.218-17.985,40.252-40.251,40.252c-22.218,0-40.253-18.034-40.253-40.252
			c0-22.242,18.035-40.252,40.253-40.252C-94.868-240.498-76.883-222.488-76.883-200.246z"/>
	</g>
	<g id="g5066" transform="matrix(.41061 0 0 .41061 28.22 10.947)">
		
			<path id="path5068" sodipodi:cx="120" sodipodi:cy="592.36218" sodipodi:type="arc" sodipodi:ry="57.142857" sodipodi:rx="57.142857" fill="#FFFFFF" d="
			M-320.309-258.379c0,88.717-71.918,160.635-160.635,160.635s-160.632-71.918-160.632-160.635
			c0-88.694,71.914-160.635,160.632-160.635S-320.309-347.073-320.309-258.379z"/>
		
			<path id="path5070" sodipodi:cx="120" sodipodi:cy="592.36218" sodipodi:type="arc" sodipodi:ry="57.142857" sodipodi:rx="57.142857" stroke="#000000" stroke-width="0.1" d="
			M-375.448-262.384c0,67.609-48.115,122.421-107.486,122.421c-59.371,0-107.485-54.812-107.485-122.421
			c0-67.634,48.113-122.448,107.485-122.448C-423.562-384.832-375.448-330.018-375.448-262.384z"/>
		
			<path id="path5072" sodipodi:cx="120" sodipodi:cy="592.36218" sodipodi:type="arc" sodipodi:ry="57.142857" sodipodi:rx="57.142857" fill="#FFFFFF" stroke="#000000" stroke-width="0.1" d="
			M-428.194-200.246c0,22.218-18.037,40.252-40.255,40.252c-22.218,0-40.252-18.034-40.252-40.252
			c0-22.242,18.034-40.252,40.252-40.252C-446.231-240.498-428.194-222.488-428.194-200.246z"/>
	</g>
</g>
<ellipse fill="none" stroke="#000000" stroke-width="13" cx="-66.158" cy="-99.425" rx="74.176" ry="45.925"/>
<ellipse fill="none" stroke="#000000" stroke-width="13" cx="108.179" cy="-99.425" rx="74.176" ry="45.925"/>
<line fill="none" stroke="#000000" stroke-width="15" stroke-linecap="round" stroke-linejoin="round" x1="-207.233" y1="-236.162" x2="-148.5" y2="-104.951"/>
<line fill="none" stroke="#000000" stroke-width="15" stroke-linecap="round" stroke-linejoin="round" x1="252.736" y1="-236.162" x2="194.004" y2="-104.951"/>
<path fill="none" stroke="#000000" stroke-width="12" stroke-linecap="round" stroke-linejoin="round" d="M6.916-91.72
	c0-7.209,6.342-13.054,14.166-13.054c7.822,0,14.167,5.845,14.167,13.054"/>
<path d="M-126.917,54.418c43.935-22.831,74.78-39.271,121.518-36.53C-54.005-4.032-85.786,23.367-126.917,54.418z"/>
<g>
	<g>
		<path id="imagebot_30" d="M77.607,838.176c-79.542,0-143.987,64.45-143.987,143.977c0,79.547,64.444,143.997,143.987,143.997
			c26.222,0,50.808-7.035,71.988-19.264c6.54,6.008,15.194,9.762,24.757,9.762c3.952,0,7.747-0.653,11.302-1.8l23.277,23.274
			c0.197,5.099,2.054,9.802,5.135,13.455l-4.644,4.644l134.058,133.98l5.236-5.137c3.972,3.754,9.347,6.124,15.256,6.124
			c12.189,0,22.049-9.88,22.049-22.129c0-5.927-2.371-11.261-6.186-15.214l4.942-4.939l-133.979-133.997l-5.612,5.55
			c-3.774-3.181-8.654-5.097-13.967-5.176l-22.469-22.485c1.503-3.992,2.296-8.319,2.296-12.843c0-9.405-3.677-17.881-9.524-24.383
			c12.783-21.494,20.133-46.589,20.133-73.42C221.653,902.626,157.144,838.176,77.607,838.176z M77.607,849.972
			c10.76,0.019,21.54,1.363,31.977,3.953c51.194,11.893,91.677,57.298,98.91,109.163c8.14,50.818-17.248,104.362-60.874,131.331
			c-45.81,29.617-109.528,25.588-151.948-8.397c-40.66-31.336-59.176-87.41-46.184-136.905
			C-36.755,892.134,18.988,848.984,77.607,849.972z M199.305,1059.15c-0.731,1.207-1.442,2.371-2.232,3.516
			c-1.54,2.293-3.201,4.526-4.859,6.738c-1.127,1.482-2.233,2.965-3.397,4.386c-1.484,1.781-3.026,3.499-4.585,5.178
			c2.806-3.063,5.453-6.263,7.982-9.564C194.722,1066.106,197.073,1062.666,199.305,1059.15z"/>
		<g>
			
				<linearGradient id="imagebot_28_1_" gradientUnits="userSpaceOnUse" x1="-1186.3545" y1="1659.7991" x2="-1186.3545" y2="1664.964" gradientTransform="matrix(18.1273 18.1273 11.2266 -11.2266 3048.6765 41282.0781)">
				<stop  offset="0" style="stop-color:#9C9C9C"/>
				<stop  offset="1" style="stop-color:#FFFFFF"/>
			</linearGradient>
			<polygon id="imagebot_28" fill="url(#imagebot_28_1_)" points="199.789,1083.827 236.249,1120.288 213.669,1142.87 
				177.208,1106.41 			"/>
			
				<radialGradient id="imagebot_26_1_" cx="-322.5727" cy="773.6071" r="111.543" gradientTransform="matrix(1.8374 0 0 -1.8354 670.4085 2534.207)" gradientUnits="userSpaceOnUse">
				<stop  offset="0" style="stop-color:#D5F6FF"/>
				<stop  offset="1" style="stop-color:#0098BE"/>
			</radialGradient>
			<path id="imagebot_26" opacity="0.4038" fill="url(#imagebot_26_1_)" enable-background="new    " d="M77.607,849.972
				c-58.619-0.988-114.339,42.163-128.095,99.164c-12.996,49.495,5.473,105.589,46.131,136.904
				c42.421,33.985,106.191,37.995,151.997,8.378c43.625-26.969,69.033-80.513,60.893-131.331
				c-7.233-51.865-47.794-97.288-98.968-109.183C99.119,851.315,88.362,849.991,77.607,849.972z"/>
			
				<linearGradient id="imagebot_24_1_" gradientUnits="userSpaceOnUse" x1="-1211.2426" y1="1582.3612" x2="-1211.2426" y2="1585.1445" gradientTransform="matrix(143.2159 0 0 -143.1786 173546.7969 227696.8281)">
				<stop  offset="0" style="stop-color:#999999"/>
				<stop  offset="1" style="stop-color:#E6E6E6"/>
			</linearGradient>
			<path id="imagebot_24" fill="url(#imagebot_24_1_)" d="M77.607,838.176c-79.542,0-144.002,64.45-144.002,143.997
				c0,79.547,64.46,143.996,144.002,143.996c79.538,0,144.066-64.45,144.066-143.996
				C221.673,902.626,157.144,838.176,77.607,838.176z M77.607,849.972c4.56,0,9.107,0.277,13.549,0.731
				c4.444,0.456,8.808,1.087,13.11,1.976c4.302,0.87,8.54,2.015,12.67,3.299c4.148,1.285,8.199,2.708,12.151,4.387
				c3.973,1.68,7.767,3.535,11.499,5.571c3.757,2.034,7.41,4.288,10.928,6.658c3.518,2.372,6.915,4.921,10.175,7.627
				c3.259,2.687,6.382,5.493,9.385,8.496c2.984,2.984,5.867,6.104,8.555,9.366c2.706,3.26,5.256,6.678,7.627,10.193
				c2.37,3.497,4.562,7.152,6.598,10.906c2.034,3.737,3.893,7.627,5.552,11.58c1.679,3.953,3.18,7.941,4.465,12.072
				c1.304,4.149,2.352,8.378,3.242,12.683c0.868,4.289,1.579,8.734,2.034,13.18c0.456,4.447,0.672,8.911,0.672,13.476
				c0,4.563-0.216,9.107-0.672,13.554c-0.455,4.446-1.166,8.812-2.034,13.1c-0.89,4.306-1.938,8.535-3.242,12.684
				c-1.284,4.13-2.786,8.201-4.465,12.151c-1.659,3.953-3.518,7.745-5.552,11.499c-2.036,3.756-4.228,7.39-6.598,10.908
				c-2.371,3.516-4.921,6.934-7.627,10.194c-2.688,3.262-5.571,6.383-8.555,9.366c-3.003,3.003-6.126,5.887-9.385,8.575
				c-3.26,2.686-6.657,5.236-10.175,7.607c-3.518,2.39-7.171,4.562-10.928,6.598c-3.731,2.037-7.526,3.893-11.499,5.572
				c-3.952,1.679-8.003,3.18-12.151,4.466c-4.13,1.283-8.368,2.35-12.67,3.22c-4.302,0.889-8.666,1.602-13.11,2.055
				c-4.442,0.453-8.988,0.652-13.549,0.652c-4.563,0-9.036-0.199-13.48-0.652c-4.442-0.453-8.88-1.166-13.184-2.055
				c-4.302-0.87-8.458-1.937-12.597-3.22c-4.138-1.285-8.205-2.787-12.159-4.466c-3.955-1.679-7.829-3.535-11.572-5.572
				c-3.748-2.036-7.397-4.208-10.914-6.598c-3.515-2.371-6.917-4.921-10.182-7.607c-3.264-2.687-6.384-5.571-9.375-8.575
				c-2.99-2.984-5.801-6.104-8.497-9.366c-2.693-3.26-5.243-6.678-7.616-10.194c-2.378-3.518-4.632-7.152-6.667-10.908
				c-2.036-3.754-3.893-7.546-5.565-11.499c-1.672-3.95-3.11-8.021-4.394-12.151c-1.288-4.149-2.416-8.378-3.298-12.684
				c-0.879-4.288-1.527-8.654-1.976-13.1c-0.452-4.447-0.661-8.99-0.661-13.554c0-4.565,0.209-9.029,0.661-13.476
				c0.449-4.446,1.097-8.891,1.976-13.18c0.881-4.305,2.009-8.534,3.298-12.683c1.284-4.131,2.722-8.119,4.394-12.072
				c1.672-3.953,3.529-7.843,5.565-11.58c2.036-3.754,4.289-7.409,6.667-10.906c2.374-3.515,4.924-6.933,7.616-10.193
				c2.695-3.262,5.507-6.383,8.497-9.366c2.991-3.003,6.111-5.809,9.375-8.496c3.265-2.706,6.667-5.255,10.182-7.627
				c3.517-2.37,7.166-4.624,10.914-6.658c3.744-2.036,7.617-3.891,11.572-5.571c3.954-1.679,8.021-3.102,12.159-4.387
				c4.139-1.283,8.295-2.429,12.597-3.299c4.304-0.89,8.742-1.52,13.184-1.976C68.571,850.249,73.044,849.972,77.607,849.972z"/>
			
				<linearGradient id="imagebot_22_1_" gradientUnits="userSpaceOnUse" x1="-1171.6661" y1="1589.207" x2="-1170.3108" y2="1592.7445" gradientTransform="matrix(30.5885 0 0 -30.4018 36008.5508 49440.8438)">
				<stop  offset="0" style="stop-color:#9C9C9C"/>
				<stop  offset="1" style="stop-color:#FFFFFF"/>
			</linearGradient>
			<path id="imagebot_22" fill="url(#imagebot_22_1_)" d="M149.536,1106.825c6.539,6.047,15.214,9.822,24.815,9.822
				c20.251,0,36.712-16.44,36.712-36.692c0-9.444-3.735-17.962-9.604-24.461c-1.422,2.411-2.826,4.862-4.386,7.172
				c-2.589,3.833-5.355,7.588-8.276,11.144c-2.945,3.557-6.046,6.915-9.307,10.177c-3.26,3.259-6.699,6.36-10.254,9.303
				c-3.557,2.925-7.232,5.692-11.067,8.28C155.404,1103.427,152.441,1105.146,149.536,1106.825z"/>
			<g>
				<g id="imagebot_2">
					<g id="imagebot_3" transform="translate(-59, -118) matrix(0.98229, 0, 0, 0.98229, 60.0059, -664.075)">
						<g id="imagebot_4">
							<g>
								<g id="imagebot_19">
									<g id="imagebot_20" opacity="0.7885">
										<path id="imagebot_21" fill="#FFFFFF" d="M75.58,859.721c-49.698,2.451-94.683,43.509-100.026,93.357
											c23.903,21.241,60.878,31.772,89.407,13.514c17.1-11.084,31.349-28.253,52.734-31.04
											c25.509-4.799,50.918,5.968,71.426,20.372c-4.485-53.03-53.822-97.685-107.06-96.262
											C79.901,859.683,77.74,859.603,75.58,859.721z"/>
									</g>
								</g>
							</g>
							
								<radialGradient id="imagebot_9_1_" cx="-453.694" cy="1473.5353" r="22.294" gradientTransform="matrix(2.8418 0.7615 0.9452 -3.5276 127.3231 6671.6294)" gradientUnits="userSpaceOnUse">
								<stop  offset="0" style="stop-color:#666666"/>
								<stop  offset="1" style="stop-color:#FFFFFF"/>
							</radialGradient>
							<path id="imagebot_9" fill="url(#imagebot_9_1_)" d="M229.968,1097.915c0,10.268-8.322,18.591-18.591,18.591
								c-10.267,0-18.592-8.323-18.592-18.591s8.325-18.591,18.592-18.591C221.646,1079.324,229.968,1087.647,229.968,1097.915z"/>
							
								<linearGradient id="imagebot_7_1_" gradientUnits="userSpaceOnUse" x1="491.407" y1="1475.9146" x2="448.7903" y2="1531.2549" gradientTransform="matrix(1.0167 0 0 -1.0167 -154.8283 2737.136)">
								<stop  offset="0" style="stop-color:#9C9C9C"/>
								<stop  offset="1" style="stop-color:#FFFFFF"/>
							</linearGradient>
							<path id="imagebot_7" fill="url(#imagebot_7_1_)" d="M342.082,1208.988c0,10.267-8.321,18.59-18.59,18.59
								c-10.269,0-18.592-8.323-18.592-18.59s8.323-18.589,18.592-18.589C333.761,1190.399,342.082,1198.721,342.082,1208.988z"/>
							
								<linearGradient id="imagebot_5_1_" gradientUnits="userSpaceOnUse" x1="-1004.4346" y1="1508.6099" x2="-1004.4376" y2="1510.5763" gradientTransform="matrix(66.6314 66.6314 20.5486 -20.5486 36177.1875 99096.8438)">
								<stop  offset="0" style="stop-color:#D88000"/>
								<stop  offset="0.3113" style="stop-color:#FFE1B5"/>
								<stop  offset="0.7097" style="stop-color:#EC9C1A"/>
								<stop  offset="1" style="stop-color:#885600"/>
							</linearGradient>
							<polygon id="imagebot_5" fill="url(#imagebot_5_1_)" points="228.09,1078.989 341.066,1191.967 306.225,1226.806 
								193.249,1113.831 							"/>
						</g>
					</g>
					<title>Layer 1</title>
				</g>
			</g>
		</g>
	</g>
</g>
<path fill="#FFFFFF" stroke="#000000" stroke-width="7" d="M741.052,193.086c-71.996,50.012-56.997,143.988,38.998,194.986
	s82.496,92.999-106.494,21.002S258.901,352.077,28.25,355.077c-104.388,1.358-212.778-4.773-305.061-5.724
	C-388.432,348.205-482.602,415.063-511.5,451.5c-34.499,43.498-51.996,81.502,26,119s161.99,78.496-36-4
	s-53.71-167.928-8.298-266.923s41.385-185.019-72.846-194.503l-394.238,135.821c176.513,34.686,203.512,24.186,199.012,82.683
	s-182.991,143.993-101.995,241.488s490.476,257.987,568.472,136.493c35.644-55.521-23.751-170.937-93.438-146.06
	c-145.667,52-138.184-101.558-90.718-98.806c34.415,1.995,128.187,47.375,230.717,46.714c205.807-1.329,487.868-5.344,601.407-1.339
	c170.104,6,416.979-35.998,571.472,29.999s259.836,167.992,322.658,85.496s-20.145-161.351-97.155-192.42
	s-93.511-189.25,38.483-266.558L741.052,193.086z"/>
<g>
	<path d="M-663.383,638.379l40.315-59.909c10.167-15.11,18.138-22.07,25.477-24.835c6.133-2.42,11.671-1.967,16.782,1.473
		c7.96,5.357,9.653,17.857-0.158,32.437c-3.033,4.507-6.802,7.938-9.325,9.516c-5.465-0.019-10.141,2.226-13.174,6.732
		c-3.032,4.507-3.229,8.418-3.487,14.407c-0.215,7.557-0.526,15.436-6.948,24.979c-8.384,12.459-19.879,17.24-29.18,10.981
		c-3.101-2.086-5.917-5.138-7.009-8.761l7.317-7.978c1.019,3.188,2.74,5.696,5.254,7.387c5.362,3.609,11.602,0.489,15.704-5.607
		c3.746-5.566,4.652-10.349,4.662-16.696c0.049-7.67,0.333-14.604,5.327-22.027c4.549-6.76,11.071-10.844,18.512-11.228
		c1.489-1.309,3.078-3.128,4.505-5.249c6.154-9.146,6.203-16.814,1.008-20.311c-6.452-4.342-14.871,0.391-27.536,19.212
		l-40.672,60.439L-663.383,638.379z"/>
</g>
<g>
	<path d="M-395.902,698.299l-29.907-70.312h62.927L-395.902,698.299z M-392.912,680.477l22.767-47.791h-43.152L-392.912,680.477z"/>
</g>
<g>
	<path d="M-483.25,667.25c-2.5,1.25-8.25,3.375-15.75,3.5l-3.125,5c4.625,0.875,8.75,4,8.75,9.125c0,7.5-6.25,10.375-13,10.375
		c-2.875,0-6.375-0.75-8.75-2.125l1.875-5.625c1.875,1.125,4.375,1.75,6.875,1.75c2.875,0,5.375-1,5.375-4
		c-0.125-3.25-3.875-4.625-9.75-5.25l5.25-9.625c-15.375-1.875-25.25-13.75-25.25-30.5c0-18.5,12.75-32.125,32.5-32.125
		c6.5,0,12.25,1.625,15.25,3.25l-2.5,8.375c-2.625-1.375-6.75-2.875-12.75-2.875c-13.875,0-21.375,10.25-21.375,22.875
		c0,13.875,9,22.5,21,22.5c6.25,0,10.5-1.5,13.5-2.875L-483.25,667.25z"/>
</g>
<path fill="#D6D6D6" stroke="#000000" stroke-width="7" stroke-linecap="round" stroke-linejoin="round" d="M-487.93,403.266
	c-122.552,194.095,70.583,83.709,139.952,124.544c30,12.847,42.145,42.641,42.145,47.812l-16.531,103.033
	C-334.093,590.103-706.5,711.5-561.5,488.5L-487.93,403.266z"/>
<sodipodi:namedview  id="base" inkscape:cy="29.799148" showborder="true" inkscape:window-height="688" inkscape:document-units="px" pagecolor="#ffffff" inkscape:pageshadow="2" inkscape:pageopacity="0.0" inkscape:window-width="872" inkscape:showpageshadow="false" inkscape:window-y="0" inkscape:zoom="1.5663785" inkscape:window-x="278" borderopacity="0.09019608" bordercolor="#666" showguides="true" inkscape:guide-bbox="true" showgrid="false" inkscape:current-layer="layer1" inkscape:cx="35.042542" inkscape:grid-bbox="false" inkscape:grid-points="false" fill="#729fcf" inkscape:window-maximized="0">
	
		<inkscape:grid  enabled="true" originx="0px" id="GridFromPre046Settings" visible="true" originy="0px" opacity=".2" empcolor="#0000ff" empopacity="0.4" spacingx="0.5px" spacingy="0.5px" empspacing="2" type="xygrid" color="#0000ff" snapvisiblegridlinesonly="true">
		</inkscape:grid>
</sodipodi:namedview>
<g>
	<path fill="#FFFFFF" stroke="#000000" stroke-width="7" d="M740.645,202.618c-39.616,3.412-80.605-96.858-91.551-223.959
		c-10.945-127.101,12.297-232.902,51.913-236.314l415.44-35.777c39.615-3.412,80.604,96.858,91.55,223.96
		c10.945,127.101-12.297,232.902-51.912,236.313L740.645,202.618z"/>
	
		<ellipse transform="matrix(0.9963 -0.0858 0.0858 0.9963 9.6207 97.2574)" fill="#FFFFFF" stroke="#000000" stroke-width="7" cx="1136.266" cy="-63.294" rx="71.996" ry="230.988"/>
	
		<ellipse transform="matrix(0.9963 -0.0858 0.0858 0.9963 9.6205 97.2562)" fill="#9F6700" stroke="#000000" stroke-width="7" cx="1136.266" cy="-63.294" rx="21.973" ry="70.497"/>
</g>
<polygon fill="#FFFFFF" stroke="#FFB800" stroke-width="17" stroke-linecap="round" stroke-linejoin="round" points="
	119.664,502.069 -137.014,502.069 -97.627,355.077 159.051,355.077 "/>
<path fill="#FFFFFF" stroke="#000000" stroke-width="7" stroke-linecap="round" stroke-linejoin="round" d="M-298.259,349.982
	c-111.622-1.148-178.343,3.081-207.241,39.519l-78.302,139.038C-501.5,415.5-450.4,507.5-306.282,503.036"/>
<line fill="none" stroke="#A5A5A5" stroke-width="4" stroke-linecap="round" stroke-linejoin="round" stroke-dasharray="12" x1="-976.556" y1="105.074" x2="-976.558" y2="105.074"/>
<line fill="none" stroke="#A5A5A5" stroke-width="4" stroke-linecap="round" stroke-linejoin="round" stroke-dasharray="12" x1="693.079" y1="159.204" x2="1106.967" y2="120.335"/>
<line fill="none" stroke="#A5A5A5" stroke-width="4" stroke-linecap="round" stroke-linejoin="round" stroke-dasharray="12" x1="656.272" y1="-153.35" x2="1070.16" y2="-192.219"/>
<line fill="none" stroke="#A5A5A5" stroke-width="4" stroke-linecap="round" stroke-linejoin="round" stroke-dasharray="12" x1="745.062" y1="364.821" x2="1057.551" y2="349.821"/>
<line fill="none" stroke="#A5A5A5" stroke-width="4" stroke-linecap="round" stroke-linejoin="round" stroke-dasharray="12" x1="412.5" y1="364.821" x2="382.5" y2="502.069"/>
<line fill="none" stroke="#A5A5A5" stroke-width="4" stroke-linecap="round" stroke-linejoin="round" stroke-dasharray="12" x1="587.688" y1="382.604" x2="620.507" y2="494.432"/>
<line fill="none" stroke="#A5A5A5" stroke-width="4" stroke-linecap="round" stroke-linejoin="round" stroke-dasharray="12" x1="-357.5" y1="355.077" x2="-401.5" y2="471.5"/>
<line fill="none" stroke="#A5A5A5" stroke-width="4" stroke-linecap="round" stroke-linejoin="round" stroke-dasharray="12" x1="-753.5" y1="271.5" x2="-515.5" y2="175.898"/>
<line fill="none" stroke="#A5A5A5" stroke-width="4" stroke-linecap="round" stroke-linejoin="round" stroke-dasharray="12" x1="-899.866" y1="565.066" x2="-669.5" y2="433.445"/>
<line fill="none" stroke="#A5A5A5" stroke-width="4" stroke-linecap="round" stroke-linejoin="round" stroke-dasharray="12" x1="-459.5" y1="528.538" x2="-481.5" y2="595.5"/>
<linearGradient id="SVGID_1_" gradientUnits="userSpaceOnUse" x1="738.3906" y1="505.6378" x2="1232.8711" y2="505.6378">
	<stop  offset="0" style="stop-color:#FFFFFF"/>
	<stop  offset="1" style="stop-color:#BFBFBF"/>
</linearGradient>
<path fill="url(#SVGID_1_)" d="M745.062,463.778l8.877,36.207c93.638-0.415,227.57,73.075,314.933,123.683
	s131.648,11.687,150.081-18.288s27.321-86.225-30.811-133.758s-109.78-49.479-126.48-106.801
	c-70.919-15.505-62.351,83.13-114.507,36.941c-74.418-65.903-77.166,26.389-147.827-4.252c63.133,31.539,45.414,59.985,3.952,53.51
	c-55.744-8.706-49.691-17.292-64.89-19.454L745.062,463.778z"/>
<g>
	<path d="M-735.421,557.059l6.564,9.826l-7.171,4.791l-11.298-16.91l5.716-3.82c9.289,1.527,23.491-1.291,37.626-10.736
		c12.784-8.541,23.971-23.072,17.585-32.631c-6.341-9.49-23.485-5.674-37.308,3.562c-13.096,8.75-22.441,21.762-24.065,30.582
		l-5.716,3.82l-11.344-16.979l7.171-4.791l6.521,9.76l0.312-0.209c2.828-8.367,10.423-19.725,23.785-28.752
		c20.06-13.402,40.12-13.754,48.113-1.791c8.352,12.498-1.078,30.111-19.579,42.473c-14.447,9.652-27.684,12.115-36.6,11.596
		L-735.421,557.059z"/>
</g>
<g>
	<path d="M963.198,427.953l-6.285-2.007L927.509,384.9l6.376,2.067L963.198,427.953z M1028.454,449.15l-73.443-39.654l44.039-1.392
		l3.464,4.836l-33.71,1.029l56.216,30.386L1028.454,449.15z"/>
</g>
<g>
	<path d="M-8.129,378.36l36.405,0.122l-0.49,1.831l-28.601,21.545l22.75,0.062l-0.299,1.343l-27.039,19.592
		c7.374,1.181,12.759,4.09,16.154,8.729c2.395,3.215,2.898,7.406,1.515,12.573c-1.952,7.283-6.065,13.713-12.339,19.287
		c-6.276,5.574-12.526,8.362-18.751,8.362c-4.15,0-7.646-1.078-10.485-3.235c-2.84-2.156-3.912-4.536-3.214-7.141
		c0.403-1.506,1.298-2.757,2.685-3.755c1.386-0.996,2.914-1.495,4.582-1.495c2.319,0,3.295,1.221,2.925,3.662l-0.546,4.09
		c-0.143,1.14,0.439,2.197,1.744,3.174s2.771,1.465,4.398,1.465c3.378,0,6.981-2.136,10.812-6.409
		c3.831-4.272,6.465-9.094,7.904-14.465c1.538-5.737,0.325-10.478-3.636-14.222c-3.962-3.742-9.726-5.615-17.294-5.615l-1.97,0.062
		l29.956-22.277h-24.414l0.262-0.978l30.303-22.888l-14.128-0.122c-2.767,0-4.924,0.61-6.472,1.831s-2.935,3.438-4.163,6.653
		l-1.571-0.062L-8.129,378.36z"/>
</g>
<g>
	<path d="M-666.615,181.115c-14.698-5.271-26.786-5.957-36.261-2.058c-6.926,2.85-12.648,7.167-17.17,12.955l-6.263,8.084
		c-5.403,6.964-12.768,12.365-22.098,16.205c-10.715,4.409-19.984,5.291-27.804,2.646c-12.687-4.313-20.087-9.044-22.204-14.188
		c-1.095-2.66-0.167-9.619,2.788-20.879c0.93-3.746,1.099-6.34,0.506-7.779c-0.574-1.396-2.646-3.016-6.218-4.859l2.257-3.835
		c7.176,0.871,12.166,1.812,14.971,2.826c2.802,1.013,4.645,2.587,5.524,4.725c0.879,2.136-0.029,6.562-2.719,13.278
		c-2.361,6.069-3.729,10.775-4.101,14.115c-0.374,3.34,0.132,6.688,1.514,10.045c9.435,0.146,17.688-1.236,24.759-4.146
		c8.455-3.479,14.55-7.619,18.286-12.419l7.251-9.409c2.344-3.004,5.451-6.017,9.322-9.036c3.871-3.021,7.446-5.205,10.727-6.555
		c9.767-4.02,20.582-3.422,32.444,1.792c-2.25-7.743-4.233-13.707-5.956-17.893c-4.055-9.854-7.944-16.246-11.663-19.178
		c-3.721-2.93-8.351-3.254-13.89-0.975c-2.843,1.17-4.919,2.646-6.229,4.436c-1.311,1.788-2.294,4.476-2.949,8.06
		c-1.445,7.884-4.753,12.892-9.928,15.021c-3.354,1.38-9.366,1.89-18.035,1.531l1.902-3.765c2.167-0.738,3.651-1.273,4.454-1.604
		c3.28-1.351,5.336-2.515,6.169-3.495c0.831-0.979,1.922-3.455,3.272-7.426c1-3.165,3.404-6.487,7.214-9.966
		c3.81-3.48,7.974-6.15,12.494-8.01c10.35-4.259,19.576-4.881,27.678-1.867c8.101,3.015,14.107,9.272,18.02,18.778
		C-664.228,156.78-663.583,168.395-666.615,181.115z"/>
</g>
<g>
	<path d="M-686.974,340.69c5.503-7.719,10.667-13.563,15.486-17.531c4.82-3.968,10.914-7.351,18.289-10.147
		c10.462-3.97,20.127-5.478,28.991-4.523c8.862,0.957,14.317,4.124,16.358,9.506c2.042,5.382,0.285,11.153-5.266,17.313
		c-5.554,6.161-13.562,11.228-24.024,15.196c-8.324,3.158-15.642,4.939-21.948,5.341c-6.309,0.405-14.129-0.401-23.463-2.417
		c-11.178,13.926-23.782,23.55-37.812,28.873c-9.274,3.518-18.181,4.607-26.714,3.265c-8.536-1.341-13.798-4.639-15.79-9.89
		c-1.817-4.791,0.382-10.467,6.598-17.031c6.214-6.562,14.257-11.715,24.128-15.46c7.492-2.842,14.468-4.437,20.934-4.788
		C-704.743,338.047-696.664,338.812-686.974,340.69z M-692.938,349.711c-12.565-3.718-24.912-3.276-37.041,1.325
		c-7.254,2.752-13.067,6.252-17.439,10.501c-4.375,4.25-5.975,7.917-4.804,11.002c1.171,3.086,4.567,4.873,10.197,5.366
		c5.626,0.494,11.591-0.456,17.896-2.848C-711.884,370.412-701.485,361.963-692.938,349.711z M-676.811,343.817
		c12.496,3.894,24.986,3.473,37.472-1.264c7.492-2.843,13.263-6.271,17.317-10.286c4.053-4.016,5.459-7.664,4.214-10.945
		c-1.17-3.085-4.759-4.652-10.762-4.703c-6.006-0.048-12.93,1.414-20.778,4.392c-5.947,2.257-10.84,4.957-14.678,8.103
		C-667.865,332.26-672.127,337.161-676.811,343.817z"/>
</g>
<g>
	<path d="M-444.217,392.313l-7.68-1.006l-20.416,45.901l2.706,1.004l18.983,2.682l-0.862,6.585l-19.318-2.79l-4.105-1.644
		l-4.744,10.562l-2.881-2.327l4.642-10.447c-7.013-7.552-9.722-17.4-8.131-29.547c1.089-8.311,4.04-15.239,8.855-20.786
		c4.814-5.547,9.981-7.959,15.503-7.236l8.788,1.217l4.896-11.063l2.865,2.455l-4.037,9.161l5.809,0.631L-444.217,392.313z
		 M-455.708,390.742l-6.238-0.688c-4.548-0.596-8.723,1.231-12.522,5.48c-3.802,4.249-6.137,9.698-7.008,16.347
		c-0.636,4.859-0.478,9.085,0.477,12.678c0.955,3.594,2.859,7.051,5.713,10.372L-455.708,390.742z"/>
</g>
<g>
	<path d="M511.291,423.145c0.244-2.197,0.365-3.824,0.365-4.883c0-5.33-1.017-9.704-3.051-13.122
		c-0.977-1.627-2.157-3.03-3.541-4.212c-1.383-1.18-2.522-1.748-3.418-1.709c-1.221,0.041-2.502,0.938-3.845,2.686
		c-1.465,1.873-2.727,2.809-3.784,2.809c-0.977,0-1.801-0.387-2.472-1.16c-0.672-0.772-1.007-1.729-1.007-2.869
		c0-3.051,2.277-4.577,6.836-4.577c6.957,0,12.268,2.126,15.93,6.378s5.493,10.428,5.493,18.524c0,5.615-0.743,11.606-2.228,17.976
		c-1.486,6.367-3.307,11.362-5.463,14.983c-2.727,4.517-6.175,8.087-10.346,10.712s-8.475,3.937-12.908,3.937
		c-4.355,0-8.047-1.374-11.078-4.12s-4.547-6.093-4.547-10.04c0-7.73,3.396-15.299,10.192-22.705
		c2.93-3.255,6.296-5.839,10.102-7.751c3.804-1.912,7.436-2.869,10.895-2.869C505.329,421.131,507.954,421.803,511.291,423.145z
		 M501.342,423.633c-4.68,0-9.176,3.398-13.488,10.193c-5.127,8.139-7.691,15.727-7.691,22.766c0,2.809,0.855,5.158,2.564,7.051
		c1.709,1.891,3.824,2.838,6.348,2.838c4.76,0,9.603-4.029,14.525-12.086c3.947-6.428,5.921-13.631,5.921-21.605
		C509.521,426.686,506.794,423.633,501.342,423.633z"/>
</g>
<g>
	<path d="M-238.397,389.431l7.919,0.464l-6.665,20.473l31.737,1.856l-2.182,6.703l-44.75,38.116l-7.919-0.463l13.013-39.973
		l-9.239-0.541l2.182-6.702l9.239,0.54L-238.397,389.431z M-239.325,417.07l-9.541,29.309l32.52-27.965L-239.325,417.07z"/>
	<path d="M-259.815,388.179l-2.261,6.946c-1.19,3.656-3.592,7.561-7.207,11.718c-3.615,4.155-8.702,8.111-15.265,11.867l-5.59,3.274
		c-7.48,4.322-12.417,7.595-14.812,9.814c-2.353,2.222-3.933,4.571-4.739,7.05c-0.846,2.6-0.523,4.957,0.968,7.073
		c1.491,2.115,4.238,3.291,8.237,3.524c3.641,0.213,6.575-0.351,8.804-1.689c2.23-1.34,3.635-2.903,4.216-4.689l0.14-0.428
		l7.919,0.464l-0.14,0.427c-0.767,2.354-2.283,4.544-4.552,6.564c-2.267,2.019-4.949,3.591-8.045,4.714
		c-3.096,1.122-6.685,1.564-10.765,1.326c-7.479-0.438-12.282-2.364-14.411-5.779c-2.128-3.415-2.458-7.377-0.99-11.887
		c0.768-2.356,2.047-4.723,3.84-7.103c1.794-2.379,4.59-4.803,8.39-7.271s6.83-4.299,9.093-5.491l3.973-2.065
		c12.461-6.474,19.789-13.083,21.983-19.825l0.536-1.646l-34.377-2.011l2.4-7.373L-259.815,388.179z"/>
</g>
<g>
	<path d="M252.038,437.901l51.391,18.286l-0.771,7.309l-63.659-22.687l0.954-8.877l67.352-7.721l-0.94,7.427L252.038,437.901z
		 M242.437,410.581l0.85-7.299l65.413,7.61l-0.834,7.162L242.437,410.581z M244.368,395.318l0.733-6.967l65.336,7.602l-0.802,6.89
		L244.368,395.318z"/>
</g>
<g>
	<path fill="#FFFFFF" stroke="#000000" stroke-width="7" d="M-753.123-331.708c37.594-12.952,101.756,74.326,143.31,194.94
		c41.554,120.614,44.763,228.891,7.169,241.843l-394.238,135.821c-37.593,12.951-101.755-74.326-143.309-194.94
		c-41.554-120.614-44.763-228.891-7.17-241.842L-753.123-331.708z"/>
	
		<ellipse transform="matrix(-0.9455 0.3257 -0.3257 -0.9455 -2078.4434 392.9993)" fill="#FFFFFF" stroke="#000000" stroke-width="7" cx="-1072.121" cy="22.504" rx="71.996" ry="230.988"/>
	
		<ellipse transform="matrix(-0.9455 0.3257 -0.3257 -0.9455 -2078.4443 392.9975)" fill="#9F6700" stroke="#000000" stroke-width="7" cx="-1072.122" cy="22.504" rx="21.973" ry="70.497"/>
</g>
<line fill="none" stroke="#A5A5A5" stroke-width="4" stroke-linecap="round" stroke-linejoin="round" stroke-dasharray="12" x1="-996.404" y1="22.504" x2="-599.595" y2="-104.774"/>
<g>
	<path d="M-756.287,96.369l-11.271,2.41c-7.62-6.957-12.027-13.123-13.223-18.494c-1.126-5.061-1.126-10.6,0.002-16.621l2.21-12.096
		c0.719-3.963,0.62-8.006-0.298-12.129c-0.834-3.746-2.333-6.953-4.493-9.621c-2.161-2.664-5.716-5.676-10.666-9.031l12.373-2.854
		c7.227,6.389,11.541,12.738,12.946,19.049c0.848,3.809,1.193,6.863,1.038,9.16c-0.156,2.297-1.103,7.932-2.841,16.908
		c-1.134,5.693-1.297,10.352-0.491,13.975C-769.692,82.897-764.789,89.346-756.287,96.369z M-724.519,89.397l-10.603,2.262
		c-7.699-8.514-12.188-15.645-13.467-21.391c-0.695-3.125-0.637-6.908,0.175-11.35l2.317-12.514
		c0.833-4.645,0.73-9.307-0.312-13.992c-0.848-3.811-2.27-7.053-4.265-9.721c-1.996-2.67-5.356-5.775-10.079-9.312l11.292-2.316
		c7.233,6.125,11.478,12,12.729,17.621c1.071,4.811,1.166,10.033,0.287,15.672l-1.874,12.709c-0.836,5.234-0.837,9.725-0.003,13.473
		C-737.099,76.035-732.497,82.322-724.519,89.397z"/>
</g>
<g>
	<path d="M-776.3-200.292c6.027,14.537,4.368,29.991-4.979,46.36s-23.396,28.441-42.147,36.216
		c-19.386,8.038-38.18,9.723-56.385,5.062c-18.205-4.661-30.321-14.261-36.349-28.798c-6.305-15.206-4.839-30.844,4.399-46.92
		c9.236-16.076,23.745-28.212,43.525-36.414c20.413-8.463,40.083-9.663,59.009-3.597c7.576,2.396,14.317,6.132,20.225,11.208
		C-783.096-212.099-778.861-206.471-776.3-200.292z M-902.12-180.684c-2.68,8.285-4.137,14.824-4.375,19.611
		c-0.238,4.789,0.648,9.606,2.66,14.457c1.96,4.729,4.623,8.581,7.986,11.556s8.77,6.292,16.217,9.955l11.132,3.058
		c8.926,1.202,15.965,1.532,21.114,0.996c5.15-0.535,11.124-2.213,17.922-5.032c6.797-2.818,12.515-6.06,17.157-9.725
		c4.639-3.665,10.109-9.183,16.409-16.554l5.628-10.221c2.901-7.74,4.569-13.83,4.997-18.271c0.428-4.44-0.249-8.814-2.033-13.118
		c-2.036-4.91-4.891-9.002-8.564-12.275c-3.673-3.272-9.556-6.961-17.647-11.067l-11.015-3.105
		c-9.146-0.614-16.419-0.564-21.82,0.148c-5.402,0.711-11.343,2.412-17.824,5.099c-6.718,2.786-12.23,5.797-16.536,9.04
		c-4.306,3.241-9.46,8.239-15.46,14.99L-902.12-180.684z M-887.045-188.64l38.314,10.225l19.153-33.305l11.104,2.962l-19.191,33.216
		l37.608,10.196l-5.912,10.231l-37.532-10.016l-19.914,34.154l-11.104-2.963l19.758-34.195l-38.276-10.134L-887.045-188.64z"/>
</g>
<g>
	<path d="M968.641-72.003l-0.189,120.46l-210.66-60.278L968.641-72.003z M807.135-16.537h145.754v-41.789L807.135-16.537z
		 M953.079,34.778l-0.19-41.694H807.135L953.079,34.778z"/>
</g>
<g>
	<path d="M844.447-254.482c-3.274,0.256-6.336-0.167-9.181-1.271c-2.848-1.103-4.33-2.446-4.454-4.028
		c-0.13-1.663,1.045-3.224,3.525-4.684c2.479-1.458,5.438-2.324,8.877-2.593c3.356-0.263,6.331,0.137,8.929,1.199
		c2.595,1.062,3.961,2.466,4.098,4.209c0.137,1.745-0.936,3.308-3.216,4.69C850.744-255.578,847.887-254.752,844.447-254.482z
		 M887.619-222.294c-3.439,0.269-6.415-0.11-8.924-1.138c-2.511-1.027-3.832-2.393-3.966-4.097s0.961-3.238,3.283-4.604
		c2.322-1.365,5.285-2.189,8.889-2.472c3.355-0.263,6.267,0.111,8.736,1.122c2.467,1.01,3.769,2.368,3.902,4.071
		c0.134,1.704-0.941,3.248-3.221,4.629C894.037-223.399,891.138-222.57,887.619-222.294z M925.859-260.922
		c-3.521,0.276-6.516-0.091-8.981-1.103c-2.47-1.01-3.771-2.388-3.907-4.132c-0.137-1.744,0.955-3.299,3.28-4.665
		c2.32-1.365,5.283-2.189,8.886-2.472c3.274-0.257,6.19,0.148,8.744,1.212c2.555,1.066,3.897,2.43,4.028,4.092
		c0.134,1.704-0.982,3.241-3.347,4.609C932.199-262.01,929.298-261.191,925.859-260.922z"/>
</g>
<g>
	<path d="M888.906,230.106c20.231-2,37.963-0.119,53.189,5.645c15.228,5.765,23.34,13.689,24.337,23.774
		c1,10.116-5.447,19.52-19.34,28.21c-13.893,8.688-31.081,14.047-51.565,16.072c-9.991,0.988-20.008,0.922-30.048-0.201
		c-10.041-1.123-18.472-3.117-25.289-5.982c-14.495-6.057-22.214-13.863-23.159-23.42c-0.896-9.061,4.498-17.711,16.184-25.947
		c6.645-4.668,14.822-8.586,24.535-11.756C867.461,233.33,877.846,231.199,888.906,230.106z M888.345,234.063
		c-18.412,1.82-33.785,6.601-46.121,14.336c-12.339,7.738-18.055,16.168-17.153,25.291c0.902,9.123,8.234,16.225,21.997,21.303
		c13.764,5.078,30.071,6.686,48.922,4.821c17.97-1.776,33.139-6.56,45.503-14.346s18.101-16.181,17.211-25.179
		c-0.894-9.031-8.241-16.113-22.041-21.252C922.861,233.9,906.755,232.242,888.345,234.063z M891.056,263.404
		c2.64-0.26,4.963-0.012,6.974,0.745s3.08,1.786,3.209,3.089c0.132,1.336-0.715,2.556-2.542,3.66
		c-1.826,1.105-4.15,1.797-6.979,2.076c-2.577,0.256-4.821,0.016-6.734-0.721c-1.913-0.734-2.934-1.754-3.062-3.058
		c-0.139-1.396,0.658-2.642,2.391-3.737S888.29,263.678,891.056,263.404z"/>
</g>
<g>
	<path d="M688.308,426.719c3.014-0.816,6.374,1.33,10.079,6.439c3.704,5.108,6.638,11.651,8.799,19.629
		c2.168,8.003,2.939,15.164,2.315,21.486c-0.624,6.319-2.461,9.895-5.513,10.721c-1.488,0.403-3.189-0.025-5.104-1.285
		c-1.914-1.261-3.729-3.146-5.443-5.659c-3.641-5.312-6.483-11.746-8.531-19.307c-1.941-7.168-2.742-13.775-2.4-19.822
		c0.197-3.425,0.801-6.205,1.812-8.336C685.331,428.453,686.66,427.165,688.308,426.719z M688.995,429.813
		c-2.743,0.742-4.39,3.93-4.939,9.559s0.153,12.053,2.107,19.27c1.956,7.217,4.595,13.082,7.917,17.596
		c3.323,4.516,6.389,6.392,9.197,5.631c2.676-0.726,4.287-3.923,4.832-9.589c0.545-5.667-0.146-12.06-2.076-19.179
		c-1.935-7.143-4.572-12.996-7.913-17.559S691.737,429.069,688.995,429.813z M702.634,451.175l1.396,5.154l-14.505,3.93
		l-1.396-5.154L702.634,451.175z M693.965,441.706c0.307,1.129,0.415,2.135,0.327,3.015c-0.089,0.88-0.349,1.378-0.778,1.494
		c-0.44,0.119-0.92-0.178-1.44-0.894c-0.521-0.715-0.934-1.639-1.239-2.768c-0.299-1.104-0.406-2.103-0.322-2.995
		c0.085-0.893,0.348-1.398,0.788-1.518c0.43-0.116,0.907,0.189,1.431,0.916C693.254,439.686,693.666,440.602,693.965,441.706z
		 M701.316,468.843c0.306,1.129,0.416,2.14,0.331,3.032c-0.085,0.892-0.343,1.396-0.772,1.513c-0.431,0.117-0.911-0.188-1.438-0.914
		c-0.528-0.726-0.946-1.654-1.252-2.783c-0.299-1.105-0.406-2.103-0.321-2.995c0.084-0.893,0.347-1.399,0.787-1.519
		c0.43-0.116,0.908,0.189,1.432,0.917C700.605,466.822,701.017,467.737,701.316,468.843z"/>
</g>
<ellipse fill="#EDEDED" stroke="#000000" stroke-width="12" cx="-148.5" cy="-419.586" rx="64.401" ry="57"/>
<ellipse fill="#EDEDED" stroke="#000000" stroke-width="12" cx="-120.898" cy="-332.982" rx="32.2" ry="29.604"/>
<path fill="#EDEDED" stroke="#000000" stroke-width="12" d="M344.655-626.466c14.023-23.649,17.006-51.625,5.455-76.007
	c-19.861-41.925-75.158-57.344-123.508-34.439c-11.154,5.284-20.961,12.149-29.209,20.095
	c-9.262-13.085-23.641-22.472-40.334-25.457c-14.076-35.531-52.473-61.027-97.639-61.027c-48.223,0-88.733,29.059-100.164,68.367
	c-8.931-5.31-19.324-8.367-30.428-8.367c-2.288,0-4.542,0.141-6.763,0.393c-6.804-34.305-40.853-60.393-81.861-60.393
	c-45.907,0-83.122,32.683-83.122,73c0,2.531,0.147,5.032,0.434,7.496c-12.179,6.773-21.782,17.691-26.987,30.876
	c-0.936-0.032-1.87-0.071-2.813-0.071c-45.454,0-82.301,36.848-82.301,82.301s36.848,82.301,82.301,82.301
	c18.006,0,34.649-5.799,48.198-15.608c6.759,6.332,14.481,11.671,22.925,15.793c5.39,45.799,49.371,81.513,102.83,81.513
	c31.616,0,59.911-12.495,78.875-32.175c18.965,19.681,47.26,32.175,78.876,32.175c33.676,0,63.588-14.176,82.465-36.114
	c14.695,11.269,33.938,18.114,55.021,18.114c40.938,0,74.969-25.764,82.1-59.752c8.084,3.684,17.104,5.752,26.623,5.752
	c34.676,0,62.787-27.311,62.787-61C368.417-598.054,359.126-615.291,344.655-626.466z"/>
<g>
	<path d="M-100.484-602.341c0,5.045-1.73,9.971-5.189,14.779c-3.46,4.81-8.134,8.432-14.021,10.865
		c-5.889,2.433-13.397,3.651-22.522,3.651c-9.053,0-16.524-1.218-22.412-3.651c-5.89-2.433-10.563-6.055-14.021-10.865
		c-3.46-4.808-5.189-9.734-5.189-14.779c0-5.396,1.949-10.542,5.852-15.439c3.9-4.896,9.826-8.782,17.775-11.657
		c-6.257-2.463-10.949-5.483-14.077-9.061c-3.129-3.577-4.692-7.683-4.692-12.316c0-4.575,1.562-8.855,4.692-12.844
		c3.127-3.988,7.654-7.008,13.58-9.062c5.924-2.052,12.089-3.079,18.493-3.079c6.476,0,12.678,1.042,18.604,3.124
		c5.924,2.083,10.45,5.102,13.58,9.061c3.127,3.959,4.692,8.226,4.692,12.8c0,4.634-1.565,8.74-4.692,12.316
		c-3.129,3.578-7.821,6.598-14.077,9.061c7.875,2.875,13.782,6.76,17.72,11.657C-102.454-612.883-100.484-607.737-100.484-602.341z
		 M-142.217-624.423c-4.564,0-8.907,0.924-13.028,2.771c-4.123,1.848-7.38,4.487-9.771,7.918c-2.393,3.431-3.588,6.965-3.588,10.601
		c0,3.519,1.14,6.937,3.422,10.249c2.281,3.314,5.521,5.836,9.716,7.566c4.195,1.73,8.611,2.595,13.249,2.595
		c4.709,0,9.164-0.865,13.359-2.595c4.195-1.729,7.434-4.251,9.716-7.566c2.281-3.312,3.422-6.73,3.422-10.249
		c0-3.636-1.197-7.17-3.588-10.601c-2.393-3.431-5.65-6.07-9.771-7.918C-133.202-623.499-137.58-624.423-142.217-624.423z
		 M-142.217-634.1c6.255,0,11.427-1.597,15.512-4.794c4.085-3.196,6.128-6.964,6.128-11.305c0-4.75-2.172-8.591-6.514-11.524
		c-4.344-2.932-9.384-4.399-15.125-4.399c-5.594,0-10.582,1.467-14.96,4.399c-4.38,2.933-6.569,6.774-6.569,11.524
		c0,4.341,2.023,8.109,6.072,11.305C-153.627-635.697-148.474-634.1-142.217-634.1z"/>
	<path d="M-57.647-624.423v-9.677h9.164c7.066,0,12.604-0.894,16.616-2.683c4.011-1.788,7.194-4.032,9.55-6.73
		c2.354-2.697,3.533-5.688,3.533-8.973c0-4.223-1.932-7.551-5.796-9.985c-3.864-2.433-8.962-3.651-15.292-3.651
		c-3.681,0-7.121,0.382-10.323,1.144c-3.202,0.763-5.649,2.039-7.342,3.827c-1.694,1.79-2.54,3.651-2.54,5.586v0.704h-13.911v-0.704
		c0-5.043,2.686-9.677,8.06-13.9c5.372-4.223,14.314-6.334,26.828-6.334c11.85,0,20.756,2.023,26.718,6.07s8.943,9.268,8.943,15.66
		c0,3.461-0.866,6.701-2.595,9.721c-1.73,3.021-4.289,5.719-7.673,8.094c-3.386,2.375-8.244,4.297-14.573,5.762
		c9.937,2.288,17.351,5.646,22.247,10.073c4.894,4.429,7.342,9.956,7.342,16.583c0,7.742-3.441,14.81-10.323,21.202
		c-6.883,6.393-17.278,9.589-31.189,9.589c-12.219,0-21.125-2.067-26.718-6.202c-5.595-4.135-8.391-8.812-8.391-14.032v-0.616
		h14.574v0.616c0,3.519,2.06,6.158,6.183,7.918c4.121,1.759,9.384,2.639,15.788,2.639c5.004,0,9.42-0.748,13.249-2.243
		c3.826-1.496,6.734-3.9,8.722-7.214c1.987-3.313,2.981-6.935,2.981-10.865c0-6.04-3-11.113-8.998-15.219
		c-6-4.104-15.144-6.158-27.436-6.158H-57.647z"/>
	<path d="M47.127-621.168c3.605-3.695,7.121-6.479,10.544-8.357c3.423-1.876,6.862-3.269,10.323-4.179
		c3.458-0.909,7.212-1.364,11.261-1.364c10.451,0,18.824,2.978,25.117,8.93c6.293,5.953,9.439,13.152,9.439,21.598
		c0,5.924-1.639,11.291-4.913,16.099c-3.275,4.81-7.821,8.577-13.635,11.305c-5.815,2.727-12.183,4.091-19.1,4.091
		c-8.023,0-15.55-1.878-22.578-5.63c-7.029-3.753-12.348-9.427-15.953-17.023c-3.607-7.595-5.41-16.964-5.41-28.108
		c0-15.835,4.066-28.459,12.199-37.873S64.24-675.8,79.476-675.8c10.305,0,18.088,1.819,23.351,5.455
		c5.262,3.637,7.895,7.772,7.895,12.404v0.616H96.147v-0.616c0-1.993-1.381-3.855-4.141-5.586c-2.76-1.729-6.864-2.595-12.311-2.595
		c-6.403,0-12.033,1.555-16.892,4.663c-4.857,3.109-8.686,8.168-11.482,15.176c-2.798,7.009-4.195,14.238-4.195,21.686V-621.168z
		 M76.164-582.723c6.403,0,11.739-2.125,16.009-6.378c4.268-4.252,6.403-9.515,6.403-15.792c0-6.334-2.264-11.333-6.79-15
		c-4.526-3.665-10.029-5.499-16.506-5.499c-7.14,0-12.955,2.098-17.443,6.29c-4.491,4.194-6.735,9.193-6.735,15
		c0,3.813,1.104,7.434,3.312,10.865c2.208,3.431,5.244,6.042,9.108,7.83C67.387-583.617,71.6-582.723,76.164-582.723z"/>
	<path d="M169.015-575.949h-15.788v-4.223c0-6.744,1.231-13.592,3.698-20.542c2.466-6.95,8.833-16.495,19.101-28.635
		c10.268-12.141,18.935-22.082,26-29.823l2.76-3.079h-67.347v-10.645h82.031v10.645c-1.179,1.467-1.841,2.258-1.987,2.375
		l-11.262,12.053c-6.993,7.565-14.225,16.789-21.694,27.667c-7.472,10.88-11.924,19.121-13.359,24.721
		c-1.435,5.602-2.152,10.484-2.152,14.648V-575.949z"/>
</g>
<path fill="none" stroke="#000000" stroke-width="7" d="M316.587,501.811c170.104,6,416.979-35.998,571.472,29.999
	s259.836,167.992,322.658,85.496s-20.145-161.351-97.155-192.42s-93.511-189.25,38.483-266.558"/>
<path fill="none" stroke="#000000" stroke-width="7" d="M779.387,387.459c95.995,50.998,82.496,92.999-106.494,21.002"/>
<g>
	<path d="M802.636,474.769l5.512,17.946l-9.906,3.043l-1.247-4.059l7.774-2.388l-3.069-9.996l-0.577,0.177
		c-1.991,0.611-3.676,0.615-5.053,0.01c-1.379-0.604-2.615-1.674-3.711-3.21c-1.096-1.534-2.02-3.521-2.768-5.958
		c-0.989-3.22-1.353-6.254-1.092-9.098c0.26-2.848,1.462-4.598,3.605-5.257c1.688-0.519,3.266-0.22,4.729,0.896
		c1.465,1.117,2.51,2.692,3.135,4.728l0.072,0.235l-2.307,0.708l-0.072-0.235c-0.329-1.074-0.894-1.86-1.69-2.362
		c-0.798-0.502-1.697-0.599-2.699-0.291c-1.352,0.415-2.094,1.555-2.229,3.42c-0.136,1.864,0.12,3.848,0.766,5.95
		c0.721,2.348,1.757,4.183,3.105,5.506c1.35,1.323,3.336,1.581,5.956,0.776L802.636,474.769z"/>
</g>
<g>
	<path d="M1012.836,512.832l22.371,11.541l-0.157,2.393c-0.121,1.846,1.851,4.357,5.919,7.541c4.066,3.18,9.197,6.686,15.396,10.52
		c6.193,3.832,13.089,7.707,20.684,11.625c9.763,5.037,17.489,8.5,23.182,10.395c5.691,1.893,8.596,2.014,8.704,0.361
		c0.063-0.961-0.762-2.316-2.468-4.061c-1.709-1.746-4.616-3.906-8.721-6.48c-4.108-2.578-8.396-5.018-12.87-7.326l-1.628-0.84
		l0.238-3.633l1.628,0.84c11.658,6.016,22.325,12.242,31.995,18.682s14.397,11.293,14.183,14.562
		c-0.203,3.094-5.033,3.006-14.49-0.264c-9.459-3.268-21.579-8.717-36.355-16.34c-8.002-4.129-15.477-8.219-22.429-12.271
		c-6.955-4.055-13.146-7.939-18.58-11.656c-5.432-3.717-9.792-7.277-13.071-10.68c-5.457-0.133-13.349-2.201-23.668-6.203
		c-10.322-4.004-23.142-9.957-38.463-17.861c-17.897-9.232-34.179-18.561-48.837-27.98c-14.662-9.422-21.873-15.949-21.634-19.582
		c0.209-3.191,5.143-3.053,14.797,0.42c9.654,3.469,20.514,8.316,32.582,14.543l1.424,0.734l-0.25,3.807l-1.424-0.734
		c-8.135-4.197-14.271-6.809-18.41-7.83c-4.138-1.021-6.262-0.695-6.371,0.977c-0.086,1.307,1.566,3.352,4.959,6.135
		c3.392,2.783,8.899,6.41,16.527,10.883c7.624,4.469,15.98,9.049,25.065,13.736c13.963,7.203,25.744,12.471,35.339,15.801
		c9.593,3.328,14.496,3.391,14.707,0.18L1012.836,512.832z"/>
	<path d="M898.643,487.486l196.261,101.25l-17.679-15.768l25.016,12.904l20.526,17.238l-0.25,3.805L898.393,491.291L898.643,487.486
		z"/>
</g>
</svg>
