<?xml version="1.0" encoding="utf-8"?>
<!-- Generator: Adobe Illustrator 14.0.0, SVG Export Plug-In . SVG Version: 6.00 Build 43363)  -->
<!DOCTYPE svg PUBLIC "-//W3C//DTD SVG 1.1//EN" "http://www.w3.org/Graphics/SVG/1.1/DTD/svg11.dtd">
<svg version="1.1" id="Layer_1" xmlns="http://www.w3.org/2000/svg" xmlns:xlink="http://www.w3.org/1999/xlink" x="0px" y="0px"
	 width="255.289px" height="116.346px" viewBox="0 0 255.289 116.346" enable-background="new 0 0 255.289 116.346"
	 xml:space="preserve">
<path d="M59.58,79.391c-8.069,2.168-12.686,2.211-20.933,5.635c5.419,2.818,14.766,7.088,25.734,9.408
	c3.841,0.802-0.68,9.255-3.209,8.663c-13.815-3.016-36.402-10.656-37.269-13.402c-0.591-1.762-1.178-7.287,1.071-8.207
	c12.015-4.771,20.497-5.128,28.069-7.35c8.408-2.505,11.988-2.98,14.403-4.333c3.171-1.758,3.574-3.414,0.898-5.218
	c-6.522-4.34-12.041-6.31-24.424-7.317c-6.208-0.475,1.213-8.729,5.508-8.2c4.441,0.537,6.357-0.194,13.25,2.548
	c7.905,3.084,19.001,9.466,19.773,14.793C83.664,74.847,66.755,77.473,59.58,79.391z"/>
<path d="M121.73,42.463c3.529-7.574,6.465-11.136,9.146-19.654c-5.643,2.338-14.924,6.749-23.755,13.656
	c-3.084,2.426-6.649-6.473-4.57-8.029c11.194-8.64,31.57-21.022,34.231-19.92c1.729,0.681,6.337,3.784,5.596,6.098
	c-4.073,12.269-9.255,18.993-12.423,26.221c-3.489,8.05-5.428,11.096-5.945,13.816c-0.693,3.559,0.316,4.933,3.418,4.043
	c7.518-2.204,12.575-5.162,21.311-13.998c4.356-4.448,5.904,6.543,2.736,9.492c-3.267,3.056-3.94,4.993-10.472,8.508
	c-7.445,4.07-19.469,8.463-24.045,5.628C109.722,63.828,118.585,49.191,121.73,42.463z"/>
<path d="M216.026,72.722c1.648,8.191,1.395,12.801,4.285,21.25c3.158-5.228,8.018-14.282,11.035-25.08
	c1.046-3.782,9.192,1.271,8.44,3.756c-3.894,13.594-12.963,35.646-15.759,36.335c-1.796,0.477-7.347,0.709-8.122-1.594
	c-3.993-12.296-3.806-20.783-5.539-28.481c-1.962-8.552-2.207-12.154-3.402-14.651c-1.552-3.277-3.178-3.785-5.15-1.23
	c-4.748,6.231-7.067,11.612-8.864,23.906c-0.871,6.165-8.634-1.77-7.831-6.022c0.82-4.397,0.213-6.357,3.39-13.06
	c3.583-7.691,10.663-18.357,16.029-18.787C213.033,48.397,214.571,65.439,216.026,72.722z"/>
</svg>
