<?xml version="1.0" encoding="utf-8"?>
<!-- Generator: Adobe Illustrator 14.0.0, SVG Export Plug-In . SVG Version: 6.00 Build 43363)  -->
<!DOCTYPE svg PUBLIC "-//W3C//DTD SVG 1.1//EN" "http://www.w3.org/Graphics/SVG/1.1/DTD/svg11.dtd">
<svg version="1.1" id="Layer_1" xmlns="http://www.w3.org/2000/svg" xmlns:xlink="http://www.w3.org/1999/xlink" x="0px" y="0px"
	 width="255.289px" height="78px" viewBox="0 30.385 255.289 78" enable-background="new 0 30.385 255.289 78" xml:space="preserve"
	>
<path d="M89.266,69.227c-5.974,5.842-9.978,8.14-15.492,15.164c6.104-0.197,16.345-1.051,27.045-4.398
	c3.742-1.182,3.938,8.402,1.444,9.125c-13.522,4.135-36.957,8.534-39.058,6.564c-1.378-1.247-4.595-5.776-3.085-7.681
	c8.14-10.043,15.36-14.507,20.875-20.151c6.104-6.303,8.993-8.469,10.437-10.831c1.904-3.085,1.444-4.728-1.772-4.989
	c-7.812-0.59-13.588,0.394-24.878,5.58c-5.646,2.625-3.217-8.206,0.788-9.847c4.135-1.707,5.448-3.282,12.8-4.268
	c8.402-1.182,21.203-1.05,24.485,3.216C108.04,53.472,94.583,64.041,89.266,69.227z"/>
<path d="M135.939,69.227c-5.975,5.842-9.979,8.14-15.493,15.164c6.104-0.197,16.345-1.051,27.045-4.398
	c3.742-1.182,3.938,8.402,1.443,9.125c-13.521,4.135-36.957,8.534-39.058,6.564c-1.378-1.247-4.595-5.776-3.085-7.681
	c8.14-10.043,15.36-14.507,20.875-20.151c6.104-6.303,8.993-8.469,10.438-10.831c1.903-3.085,1.443-4.728-1.772-4.989
	c-7.812-0.59-13.588,0.394-24.878,5.58c-5.646,2.625-3.217-8.206,0.788-9.847c4.135-1.707,5.448-3.282,12.8-4.268
	c8.402-1.182,21.203-1.05,24.484,3.216C154.713,53.472,141.256,64.041,135.939,69.227z"/>
<path d="M182.613,69.227c-5.975,5.842-9.979,8.14-15.492,15.164c6.104-0.197,16.345-1.051,27.045-4.398
	c3.742-1.182,3.938,8.402,1.443,9.125c-13.521,4.135-36.957,8.534-39.058,6.564c-1.378-1.247-4.595-5.776-3.085-7.681
	c8.141-10.043,15.36-14.507,20.875-20.151c6.104-6.303,8.993-8.469,10.438-10.831c1.904-3.085,1.443-4.728-1.772-4.989
	c-7.812-0.59-13.588,0.394-24.878,5.58c-5.646,2.625-3.217-8.206,0.788-9.847c4.135-1.707,5.448-3.282,12.8-4.268
	c8.402-1.182,21.203-1.05,24.485,3.216C201.387,53.472,187.93,64.041,182.613,69.227z"/>
</svg>
