<?xml version="1.0" encoding="utf-8"?>
<!-- Generator: Adobe Illustrator 14.0.0, SVG Export Plug-In . SVG Version: 6.00 Build 43363)  -->
<!DOCTYPE svg PUBLIC "-//W3C//DTD SVG 1.1//EN" "http://www.w3.org/Graphics/SVG/1.1/DTD/svg11.dtd">
<svg version="1.1" id="Layer_1" xmlns="http://www.w3.org/2000/svg" xmlns:xlink="http://www.w3.org/1999/xlink" x="0px" y="0px"
	 width="52.708px" height="30px" viewBox="0 0 52.708 30" enable-background="new 0 0 52.708 30" xml:space="preserve">
<g>
	<path fill="#555555" stroke="#C9C9B5" d="M0.565,20.77c0,2.209,1.824,4,4.075,4h43.464c2.251,0,4.075-1.791,4.075-4V4.859
		c0-2.209-1.824-4-4.075-4H4.64c-2.251,0-4.075,1.791-4.075,4V20.77z"/>
	
		<linearGradient id="SVGID_1_" gradientUnits="userSpaceOnUse" x1="2.6646" y1="12.8145" x2="49.2495" y2="12.8145" gradientTransform="matrix(-1 0 0 1 52.7441 0)">
		<stop  offset="0.5092" style="stop-color:#F5F5DC"/>
		<stop  offset="0.5677" style="stop-color:#E7E7D0"/>
		<stop  offset="0.666" style="stop-color:#D6D6C1"/>
		<stop  offset="0.7738" style="stop-color:#CCCCB8"/>
		<stop  offset="0.908" style="stop-color:#C9C9B5"/>
		<stop  offset="0.9264" style="stop-color:#F5F5DC"/>
		<stop  offset="1" style="stop-color:#C9C9B5"/>
	</linearGradient>
	<path fill="url(#SVGID_1_)" stroke="#C9C9B5" d="M3.495,19.508c0,1.858,1.646,3.365,3.678,3.365h39.229
		c2.031,0,3.678-1.507,3.678-3.365V6.121c0-1.858-1.646-3.365-3.678-3.365H7.172c-2.031,0-3.678,1.507-3.678,3.365V19.508z"/>
	
		<linearGradient id="SVGID_2_" gradientUnits="userSpaceOnUse" x1="38.6851" y1="27.0127" x2="39.3162" y2="23.1557" gradientTransform="matrix(-1 0 0 1 52.7441 0)">
		<stop  offset="0" style="stop-color:#F5F5DC"/>
		<stop  offset="0.2503" style="stop-color:#E6E6CF"/>
		<stop  offset="0.7041" style="stop-color:#D1D1BC"/>
		<stop  offset="1" style="stop-color:#C9C9B5"/>
	</linearGradient>
	<path fill="url(#SVGID_2_)" d="M26.479,25.25c0,0-21.104,4.501-22.014,4.172c-0.91-0.328-3.736-6.219-3.736-6.219
		s1.547,2.333,4.891,2.062L26.479,25.25z"/>
</g>
</svg>
